<?xml version="1.0" encoding="UTF-8"?>
<svg xmlns="http://www.w3.org/2000/svg" xmlns:xlink="http://www.w3.org/1999/xlink" width="20px" height="20px" viewBox="0 0 20 20" version="1.1">
<g id="surface1">
<path style=" stroke:none;fill-rule:nonzero;fill:rgb(14.509804%,40.784314%,93.72549%);fill-opacity:1;" d="M 19.375 10 C 19.375 10.800781 18.390625 11.460938 18.195312 12.195312 C 17.992188 12.960938 18.507812 14.023438 18.121094 14.6875 C 17.726562 15.367188 16.546875 15.449219 16 16 C 15.449219 16.546875 15.367188 17.726562 14.6875 18.121094 C 14.023438 18.507812 12.960938 17.992188 12.195312 18.195312 C 11.460938 18.390625 10.800781 19.375 10 19.375 C 9.199219 19.375 8.539062 18.390625 7.804688 18.195312 C 7.039062 17.992188 5.976562 18.507812 5.3125 18.121094 C 4.632812 17.726562 4.550781 16.546875 4 16 C 3.453125 15.449219 2.273438 15.367188 1.878906 14.6875 C 1.492188 14.023438 2.007812 12.960938 1.804688 12.195312 C 1.609375 11.460938 0.625 10.800781 0.625 10 C 0.625 9.199219 1.609375 8.539062 1.804688 7.804688 C 2.007812 7.039062 1.492188 5.976562 1.878906 5.3125 C 2.273438 4.632812 3.453125 4.550781 4 4 C 4.550781 3.453125 4.632812 2.273438 5.3125 1.878906 C 5.976562 1.492188 7.039062 2.007812 7.804688 1.804688 C 8.539062 1.609375 9.199219 0.625 10 0.625 C 10.800781 0.625 11.460938 1.609375 12.195312 1.804688 C 12.960938 2.007812 14.023438 1.492188 14.6875 1.878906 C 15.367188 2.273438 15.449219 3.453125 16 4 C 16.546875 4.550781 17.726562 4.632812 18.121094 5.3125 C 18.507812 5.976562 17.992188 7.039062 18.195312 7.804688 C 18.390625 8.539062 19.375 9.199219 19.375 10 Z M 19.375 10 "/>
<path style=" stroke:none;fill-rule:nonzero;fill:rgb(100%,98.823529%,93.333333%);fill-opacity:1;" d="M 12.710938 7.207031 L 9.140625 10.773438 L 7.289062 8.925781 C 6.890625 8.523438 6.238281 8.523438 5.835938 8.925781 C 5.433594 9.328125 5.433594 9.980469 5.835938 10.382812 L 8.429688 12.976562 C 8.820312 13.367188 9.457031 13.367188 9.847656 12.976562 L 14.164062 8.660156 C 14.5625 8.257812 14.5625 7.609375 14.164062 7.207031 C 13.761719 6.804688 13.109375 6.804688 12.710938 7.207031 Z M 12.710938 7.207031 "/>
</g>
</svg>
